<svg id="visual" viewBox="0 0 900 600" width="900" height="600" xmlns="http://www.w3.org/2000/svg" xmlns:xlink="http://www.w3.org/1999/xlink" version="1.1"><g stroke-width="1" stroke-linejoin="bevel"><path d="M403 311L326 333L380 424Z" fill="#ebebeb" stroke="#ebebeb"></path><path d="M326 333L327 403L380 424Z" fill="#ffffff" stroke="#ffffff"></path><path d="M380 424L490 436L403 311Z" fill="#cdcdcd" stroke="#cdcdcd"></path><path d="M525 292L430 234L403 311Z" fill="#bababa" stroke="#bababa"></path><path d="M403 311L311 219L326 333Z" fill="#c3c3c3" stroke="#c3c3c3"></path><path d="M202 433L323 510L327 403Z" fill="#b0b0b0" stroke="#b0b0b0"></path><path d="M327 403L323 510L380 424Z" fill="#9d9d9d" stroke="#9d9d9d"></path><path d="M380 424L406 534L490 436Z" fill="#cdcdcd" stroke="#cdcdcd"></path><path d="M430 234L311 219L403 311Z" fill="#d7d7d7" stroke="#d7d7d7"></path><path d="M326 333L202 433L327 403Z" fill="#d7d7d7" stroke="#d7d7d7"></path><path d="M490 436L525 292L403 311Z" fill="#b0b0b0" stroke="#b0b0b0"></path><path d="M323 510L406 534L380 424Z" fill="#f5f5f5" stroke="#f5f5f5"></path><path d="M183 290L202 433L326 333Z" fill="#c3c3c3" stroke="#c3c3c3"></path><path d="M311 219L183 290L326 333Z" fill="#bababa" stroke="#bababa"></path><path d="M525 292L470 173L430 234Z" fill="#e1e1e1" stroke="#e1e1e1"></path><path d="M430 234L329 116L311 219Z" fill="#e1e1e1" stroke="#e1e1e1"></path><path d="M406 534L535 519L490 436Z" fill="#9d9d9d" stroke="#9d9d9d"></path><path d="M490 436L630 400L525 292Z" fill="#cdcdcd" stroke="#cdcdcd"></path><path d="M324 600L393 600L406 534Z" fill="#f5f5f5" stroke="#f5f5f5"></path><path d="M406 534L464 600L535 519Z" fill="#ffffff" stroke="#ffffff"></path><path d="M324 600L406 534L323 510Z" fill="#b0b0b0" stroke="#b0b0b0"></path><path d="M185 600L324 600L323 510Z" fill="#9d9d9d" stroke="#9d9d9d"></path><path d="M329 116L235 163L311 219Z" fill="#9d9d9d" stroke="#9d9d9d"></path><path d="M311 219L235 163L183 290Z" fill="#b0b0b0" stroke="#b0b0b0"></path><path d="M393 600L464 600L406 534Z" fill="#9d9d9d" stroke="#9d9d9d"></path><path d="M74 211L127 335L183 290Z" fill="#bababa" stroke="#bababa"></path><path d="M183 290L127 335L202 433Z" fill="#bababa" stroke="#bababa"></path><path d="M202 433L166 523L323 510Z" fill="#9d9d9d" stroke="#9d9d9d"></path><path d="M470 173L329 116L430 234Z" fill="#ebebeb" stroke="#ebebeb"></path><path d="M634 261L566 193L525 292Z" fill="#cdcdcd" stroke="#cdcdcd"></path><path d="M525 292L566 193L470 173Z" fill="#9d9d9d" stroke="#9d9d9d"></path><path d="M470 173L369 78L329 116Z" fill="#d7d7d7" stroke="#d7d7d7"></path><path d="M634 483L630 400L490 436Z" fill="#cdcdcd" stroke="#cdcdcd"></path><path d="M83 460L166 523L202 433Z" fill="#e1e1e1" stroke="#e1e1e1"></path><path d="M630 400L634 261L525 292Z" fill="#cdcdcd" stroke="#cdcdcd"></path><path d="M574 600L634 483L535 519Z" fill="#ffffff" stroke="#ffffff"></path><path d="M535 519L634 483L490 436Z" fill="#bababa" stroke="#bababa"></path><path d="M630 400L733 306L634 261Z" fill="#ffffff" stroke="#ffffff"></path><path d="M493 93L369 78L470 173Z" fill="#ebebeb" stroke="#ebebeb"></path><path d="M329 116L170 68L235 163Z" fill="#f5f5f5" stroke="#f5f5f5"></path><path d="M562 122L493 93L470 173Z" fill="#d7d7d7" stroke="#d7d7d7"></path><path d="M562 122L470 173L566 193Z" fill="#e1e1e1" stroke="#e1e1e1"></path><path d="M127 335L80 382L202 433Z" fill="#a6a6a6" stroke="#a6a6a6"></path><path d="M0 377L80 382L0 295Z" fill="#a6a6a6" stroke="#a6a6a6"></path><path d="M166 523L185 600L323 510Z" fill="#ebebeb" stroke="#ebebeb"></path><path d="M74 600L185 600L166 523Z" fill="#ffffff" stroke="#ffffff"></path><path d="M708 96L562 122L566 193Z" fill="#d7d7d7" stroke="#d7d7d7"></path><path d="M464 600L574 600L535 519Z" fill="#f5f5f5" stroke="#f5f5f5"></path><path d="M80 382L83 460L202 433Z" fill="#ffffff" stroke="#ffffff"></path><path d="M719 474L687 413L634 483Z" fill="#b0b0b0" stroke="#b0b0b0"></path><path d="M634 483L687 413L630 400Z" fill="#d7d7d7" stroke="#d7d7d7"></path><path d="M126 74L74 211L235 163Z" fill="#a6a6a6" stroke="#a6a6a6"></path><path d="M235 163L74 211L183 290Z" fill="#ebebeb" stroke="#ebebeb"></path><path d="M728 600L719 474L634 483Z" fill="#d7d7d7" stroke="#d7d7d7"></path><path d="M687 413L733 306L630 400Z" fill="#9d9d9d" stroke="#9d9d9d"></path><path d="M768 368L733 306L687 413Z" fill="#bababa" stroke="#bababa"></path><path d="M634 261L708 96L566 193Z" fill="#e1e1e1" stroke="#e1e1e1"></path><path d="M290 0L170 68L329 116Z" fill="#e1e1e1" stroke="#e1e1e1"></path><path d="M493 93L424 0L369 78Z" fill="#b0b0b0" stroke="#b0b0b0"></path><path d="M369 78L290 0L329 116Z" fill="#e1e1e1" stroke="#e1e1e1"></path><path d="M523 0L424 0L493 93Z" fill="#b0b0b0" stroke="#b0b0b0"></path><path d="M424 0L290 0L369 78Z" fill="#cdcdcd" stroke="#cdcdcd"></path><path d="M0 295L80 382L127 335Z" fill="#c3c3c3" stroke="#c3c3c3"></path><path d="M80 382L0 377L83 460Z" fill="#9d9d9d" stroke="#9d9d9d"></path><path d="M83 460L74 600L166 523Z" fill="#f5f5f5" stroke="#f5f5f5"></path><path d="M733 306L731 225L634 261Z" fill="#9d9d9d" stroke="#9d9d9d"></path><path d="M568 0L523 0L493 93Z" fill="#b0b0b0" stroke="#b0b0b0"></path><path d="M0 218L0 295L74 211Z" fill="#e1e1e1" stroke="#e1e1e1"></path><path d="M74 211L0 295L127 335Z" fill="#ffffff" stroke="#ffffff"></path><path d="M0 532L74 600L83 460Z" fill="#d7d7d7" stroke="#d7d7d7"></path><path d="M131 0L126 74L170 68Z" fill="#c3c3c3" stroke="#c3c3c3"></path><path d="M170 68L126 74L235 163Z" fill="#b0b0b0" stroke="#b0b0b0"></path><path d="M719 474L768 368L687 413Z" fill="#a6a6a6" stroke="#a6a6a6"></path><path d="M733 306L778 221L731 225Z" fill="#ebebeb" stroke="#ebebeb"></path><path d="M568 0L493 93L562 122Z" fill="#ebebeb" stroke="#ebebeb"></path><path d="M290 0L216 0L170 68Z" fill="#c3c3c3" stroke="#c3c3c3"></path><path d="M768 368L774 330L733 306Z" fill="#a6a6a6" stroke="#a6a6a6"></path><path d="M0 95L0 218L74 211Z" fill="#b0b0b0" stroke="#b0b0b0"></path><path d="M708 96L568 0L562 122Z" fill="#bababa" stroke="#bababa"></path><path d="M0 377L0 532L83 460Z" fill="#9d9d9d" stroke="#9d9d9d"></path><path d="M574 600L728 600L634 483Z" fill="#c3c3c3" stroke="#c3c3c3"></path><path d="M719 474L816 470L768 368Z" fill="#ffffff" stroke="#ffffff"></path><path d="M774 330L778 221L733 306Z" fill="#cdcdcd" stroke="#cdcdcd"></path><path d="M731 225L708 96L634 261Z" fill="#f5f5f5" stroke="#f5f5f5"></path><path d="M771 118L708 96L731 225Z" fill="#bababa" stroke="#bababa"></path><path d="M216 0L131 0L170 68Z" fill="#9d9d9d" stroke="#9d9d9d"></path><path d="M126 74L0 95L74 211Z" fill="#c3c3c3" stroke="#c3c3c3"></path><path d="M0 532L0 600L74 600Z" fill="#ebebeb" stroke="#ebebeb"></path><path d="M768 368L900 400L774 330Z" fill="#b0b0b0" stroke="#b0b0b0"></path><path d="M774 330L900 309L778 221Z" fill="#9d9d9d" stroke="#9d9d9d"></path><path d="M728 600L816 470L719 474Z" fill="#9d9d9d" stroke="#9d9d9d"></path><path d="M0 0L0 95L126 74Z" fill="#b0b0b0" stroke="#b0b0b0"></path><path d="M900 113L771 118L778 221Z" fill="#f5f5f5" stroke="#f5f5f5"></path><path d="M778 221L771 118L731 225Z" fill="#f5f5f5" stroke="#f5f5f5"></path><path d="M708 96L693 0L568 0Z" fill="#cdcdcd" stroke="#cdcdcd"></path><path d="M782 0L693 0L708 96Z" fill="#ffffff" stroke="#ffffff"></path><path d="M728 600L824 600L816 470Z" fill="#bababa" stroke="#bababa"></path><path d="M131 0L0 0L126 74Z" fill="#ebebeb" stroke="#ebebeb"></path><path d="M900 483L900 400L816 470Z" fill="#bababa" stroke="#bababa"></path><path d="M816 470L900 400L768 368Z" fill="#b0b0b0" stroke="#b0b0b0"></path><path d="M900 400L900 309L774 330Z" fill="#ffffff" stroke="#ffffff"></path><path d="M771 118L782 0L708 96Z" fill="#a6a6a6" stroke="#a6a6a6"></path><path d="M824 600L900 483L816 470Z" fill="#ebebeb" stroke="#ebebeb"></path><path d="M900 309L900 220L778 221Z" fill="#ebebeb" stroke="#ebebeb"></path><path d="M900 113L782 0L771 118Z" fill="#b0b0b0" stroke="#b0b0b0"></path><path d="M824 600L900 600L900 483Z" fill="#ebebeb" stroke="#ebebeb"></path><path d="M900 220L900 113L778 221Z" fill="#a6a6a6" stroke="#a6a6a6"></path><path d="M900 113L900 0L782 0Z" fill="#b0b0b0" stroke="#b0b0b0"></path></g></svg>